<svg width="172" height="25" viewBox="0 0 172 25" fill="none" xmlns="http://www.w3.org/2000/svg">
<path d="M149.829 6.96582C150.821 7.01384 151.72 7.19396 152.528 7.50586C153.336 7.81783 154.025 8.24515 154.593 8.78906C155.161 9.33306 155.601 9.9814 155.913 10.7334C156.225 11.4854 156.381 12.3259 156.381 13.2539C156.381 14.1817 156.225 15.0216 155.913 15.7734C155.601 16.5254 155.161 17.1738 154.593 17.7178C154.025 18.2617 153.336 18.6937 152.528 19.0137C151.721 19.3255 150.821 19.5057 149.829 19.5537V23.5371H147.417V19.5537C146.425 19.5057 145.525 19.3256 144.717 19.0137C143.909 18.6937 143.22 18.2618 142.652 17.7178C142.084 17.1738 141.645 16.5254 141.333 15.7734C141.021 15.0216 140.865 14.1817 140.865 13.2539C140.865 12.3339 141.021 11.4971 141.333 10.7451C141.645 9.99344 142.085 9.34559 142.652 8.80176C143.22 8.25776 143.909 7.82958 144.717 7.51758C145.525 7.19758 146.425 7.01382 147.417 6.96582V2.10547H149.829V6.96582ZM16.9863 7.14551C17.2022 7.14551 17.3665 7.19691 17.4785 7.30078C17.5985 7.39678 17.6872 7.51341 17.7432 7.64941L20.6582 14.5967C20.7302 14.7967 20.7946 14.9973 20.8506 15.1973C20.9145 15.3891 20.9743 15.589 21.0303 15.7969C21.0943 15.5889 21.1587 15.3846 21.2227 15.1846C21.2866 14.9847 21.3585 14.7848 21.4385 14.585L24.2344 7.64941C24.2904 7.50541 24.3827 7.38506 24.5107 7.28906C24.6467 7.19307 24.7951 7.14551 24.9551 7.14551H27.0186L20.2744 22.8652C20.1864 23.0491 20.0781 23.1929 19.9502 23.2969C19.8302 23.4008 19.6426 23.4531 19.3867 23.4531H17.4785L19.7344 18.5566L14.7432 7.14551H16.9863ZM66.8848 7.14551C67.1006 7.14551 67.265 7.19691 67.377 7.30078C67.497 7.39678 67.5856 7.51341 67.6416 7.64941L70.5566 14.5967C70.6286 14.7967 70.693 14.9973 70.749 15.1973C70.813 15.3891 70.8727 15.589 70.9287 15.7969C70.9927 15.5889 71.0571 15.3846 71.1211 15.1846C71.1851 14.9847 71.257 14.7848 71.3369 14.585L74.1328 7.64941C74.1888 7.50541 74.2812 7.38506 74.4092 7.28906C74.5452 7.19307 74.6935 7.14551 74.8535 7.14551H76.917L70.1729 22.8652C70.0849 23.0491 69.9766 23.1929 69.8486 23.2969C69.7286 23.4008 69.541 23.4531 69.2852 23.4531H67.377L69.6328 18.5566L64.6416 7.14551H66.8848ZM164.115 6.95312C165.019 6.95316 165.835 7.10156 166.562 7.39746C167.298 7.69344 167.923 8.11328 168.435 8.65723C168.954 9.20113 169.355 9.86089 169.635 10.6367C169.915 11.4127 170.055 12.285 170.055 13.2529C170.055 14.2209 169.915 15.0931 169.635 15.8691C169.355 16.6451 168.955 17.3093 168.435 17.8613C167.923 18.4052 167.298 18.8251 166.562 19.1211C165.835 19.417 165.019 19.5654 164.115 19.5654C163.203 19.5654 162.379 19.4171 161.643 19.1211C160.915 18.8251 160.29 18.4053 159.771 17.8613C159.251 17.3094 158.851 16.645 158.571 15.8691C158.291 15.0931 158.151 14.2209 158.151 13.2529C158.151 12.285 158.291 11.4127 158.571 10.6367C158.851 9.86105 159.251 9.20107 159.771 8.65723C160.29 8.11332 160.915 7.69345 161.643 7.39746C162.379 7.10146 163.203 6.95312 164.115 6.95312ZM3.02441 2.10547C3.22412 2.10551 3.36811 2.13727 3.45605 2.20117C3.55205 2.25717 3.63601 2.34582 3.70801 2.46582L7.9082 9.06543C7.94819 8.96946 7.98834 8.87331 8.02832 8.77734C8.06828 8.68148 8.11971 8.58138 8.18359 8.47754L12.0957 2.51367C12.1757 2.37767 12.2644 2.27787 12.3604 2.21387C12.4563 2.14188 12.572 2.10547 12.708 2.10547H15.3838L9.74414 10.3857L15.5645 19.3857H12.7676C12.5758 19.3857 12.4197 19.3334 12.2998 19.2295C12.1799 19.1256 12.0837 19.0097 12.0117 18.8818L7.71582 11.957C7.68385 12.053 7.64836 12.1455 7.6084 12.2334C7.57643 12.3213 7.53623 12.4054 7.48828 12.4854L3.33594 18.8818C3.248 19.0097 3.14803 19.1256 3.03613 19.2295C2.93217 19.3335 2.79211 19.3857 2.61621 19.3857H0L5.83203 10.5059L0.240234 2.10547H3.02441ZM113.045 13.5654C113.045 13.9494 113.033 14.3534 113.009 14.7773C112.993 15.1933 112.953 15.6337 112.889 16.0977C113.041 15.6897 113.2 15.309 113.368 14.957C113.544 14.5971 113.713 14.2854 113.873 14.0215L121.192 2.98145C121.256 2.87761 121.328 2.77376 121.408 2.66992C121.496 2.566 121.592 2.47351 121.696 2.39355C121.808 2.30555 121.925 2.23745 122.045 2.18945C122.165 2.13354 122.293 2.10547 122.429 2.10547H124.528V19.3857H121.721V7.91309C121.721 7.52933 121.728 7.12958 121.744 6.71387C121.768 6.29787 121.813 5.84914 121.877 5.36914C121.725 5.78503 121.561 6.17328 121.385 6.5332C121.217 6.8852 121.049 7.19773 120.881 7.46973L113.561 18.5098C113.497 18.6136 113.421 18.7175 113.333 18.8213C113.253 18.9252 113.157 19.0214 113.045 19.1094C112.941 19.1893 112.829 19.2575 112.709 19.3135C112.589 19.3615 112.46 19.3857 112.324 19.3857H110.225V2.10547H113.045V13.5654ZM31.2773 11.8848H36.5693V7.14551H39.1377V19.3848H36.5693V13.8291H31.2773V19.3848H28.6982V7.14551H31.2773V11.8848ZM44.752 11.8008H47.1152C47.9632 11.8008 48.6797 11.9053 49.2637 12.1133C49.8475 12.3133 50.3197 12.5848 50.6797 12.9287C51.0397 13.2727 51.3 13.6729 51.46 14.1289C51.6199 14.5769 51.6992 15.0452 51.6992 15.5332C51.6992 16.1011 51.5993 16.6209 51.3994 17.0928C51.1995 17.5567 50.9036 17.9607 50.5117 18.3047C50.1278 18.6486 49.6518 18.9174 49.084 19.1094C48.524 19.2934 47.8794 19.3848 47.1514 19.3848H42.292V7.14551H44.752V11.8008ZM55.4375 10.8047C55.4375 11.3404 55.5375 11.7726 55.7373 12.1006C55.9373 12.4206 56.2377 12.6492 56.6377 12.7852C57.0457 12.9131 57.5542 12.957 58.1621 12.917C58.778 12.877 59.5022 12.765 60.334 12.5811V7.14551H62.9014V19.3848H60.334V14.4053C59.286 14.6693 58.3056 14.8288 57.3936 14.8848C56.4896 14.9328 55.7013 14.8414 55.0293 14.6094C54.3574 14.3774 53.8293 13.9846 53.4453 13.4326C53.0615 12.8807 52.8701 12.1369 52.8701 11.2012V7.14551H55.4375V10.8047ZM81.1758 11.8848H86.4678V7.14551H89.0361V19.3848H86.4678V13.8291H81.1758V19.3848H78.5967V7.14551H81.1758V11.8848ZM94.6504 11.8008H97.0137C97.8617 11.8008 98.5781 11.9053 99.1621 12.1133C99.746 12.3133 100.218 12.5848 100.578 12.9287C100.938 13.2727 101.198 13.6729 101.358 14.1289C101.518 14.5769 101.598 15.0452 101.598 15.5332C101.598 16.1011 101.498 16.6209 101.298 17.0928C101.098 17.5567 100.802 17.9607 100.41 18.3047C100.026 18.6486 99.5503 18.9174 98.9824 19.1094C98.4224 19.2934 97.7778 19.3848 97.0498 19.3848H92.1904V7.14551H94.6504V11.8008ZM130.559 11.8848H135.851V7.14551H138.419V19.3848H135.851V13.8291H130.559V19.3848H127.979V7.14551H130.559V11.8848ZM147.501 8.89746C146.197 8.98546 145.192 9.40992 144.488 10.1699C143.793 10.9219 143.444 11.9539 143.444 13.2656C143.444 14.5774 143.792 15.6094 144.488 16.3613C145.192 17.1133 146.197 17.5331 147.501 17.6211V8.89746ZM149.757 17.6211C151.061 17.5331 152.061 17.1133 152.757 16.3613C153.461 15.6094 153.812 14.5775 153.812 13.2656C153.812 11.9538 153.461 10.9219 152.757 10.1699C152.061 9.40994 151.061 8.98547 149.757 8.89746V17.6211ZM164.115 8.95703C162.995 8.95703 162.163 9.33312 161.619 10.085C161.075 10.8289 160.803 11.8889 160.803 13.2646C160.803 14.6406 161.075 15.7013 161.619 16.4453C162.163 17.1811 162.995 17.5488 164.115 17.5488C165.219 17.5487 166.039 17.1812 166.575 16.4453C167.119 15.7013 167.391 14.6406 167.391 13.2646C167.391 11.8889 167.119 10.8289 166.575 10.085C166.039 9.33304 165.219 8.95711 164.115 8.95703ZM44.752 17.5127H47.1514C47.5274 17.5127 47.8557 17.4651 48.1357 17.3691C48.4237 17.2651 48.6598 17.1289 48.8438 16.9609C49.0357 16.785 49.1757 16.5768 49.2637 16.3369C49.3596 16.097 49.4072 15.8329 49.4072 15.5449C49.4072 15.289 49.3633 15.0491 49.2754 14.8252C49.1954 14.5932 49.0639 14.3926 48.8799 14.2246C48.7039 14.0487 48.4715 13.9134 48.1836 13.8174C47.8957 13.7134 47.5437 13.6612 47.1279 13.6611H44.752V17.5127ZM94.6504 17.5127H97.0498C97.4258 17.5127 97.7542 17.4651 98.0342 17.3691C98.3221 17.2651 98.5582 17.1289 98.7422 16.9609C98.9341 16.785 99.0741 16.5768 99.1621 16.3369C99.2581 16.097 99.3057 15.8329 99.3057 15.5449C99.3057 15.289 99.2618 15.0491 99.1738 14.8252C99.0938 14.5932 98.9623 14.3926 98.7783 14.2246C98.6024 14.0487 98.3699 13.9134 98.082 13.8174C97.7941 13.7134 97.4422 13.6612 97.0264 13.6611H94.6504V17.5127Z" fill="#FB5E29"/>
</svg>
