<svg width="16" height="16" viewBox="0 0 16 16" fill="none" xmlns="http://www.w3.org/2000/svg">
<g clip-path="url(#clip0_32_14268)">
<path d="M6.94781 4.47594C7.24339 2.68148 7.39117 1.78426 7.64447 1.62439C7.86185 1.48718 8.13874 1.48718 8.35612 1.62439C8.60942 1.78426 8.75721 2.68148 9.05278 4.47594L9.27817 5.84428C9.32289 6.11579 9.34525 6.25155 9.4096 6.35975C9.46643 6.45531 9.54626 6.53513 9.64182 6.59196C9.75002 6.65632 9.88578 6.67868 10.1573 6.7234L11.5256 6.94879C13.3201 7.24436 14.2173 7.39215 14.3772 7.64545C14.5144 7.86282 14.5144 8.13972 14.3772 8.3571C14.2173 8.61039 13.3201 8.75818 11.5256 9.05376L10.1573 9.27914C9.88578 9.32387 9.75002 9.34623 9.64182 9.41058C9.54626 9.46741 9.46643 9.54724 9.4096 9.64279C9.34525 9.751 9.32289 9.88675 9.27817 10.1583L9.05278 11.5266C8.75721 13.3211 8.60942 14.2183 8.35612 14.3782C8.13874 14.5154 7.86185 14.5154 7.64447 14.3782C7.39117 14.2183 7.24339 13.3211 6.94781 11.5266L6.72242 10.1583C6.6777 9.88675 6.65534 9.751 6.59099 9.64279C6.53416 9.54724 6.45433 9.46741 6.35878 9.41058C6.25057 9.34623 6.11481 9.32387 5.8433 9.27914L4.47497 9.05376C2.68051 8.75818 1.78328 8.61039 1.62341 8.3571C1.48621 8.13972 1.48621 7.86282 1.62341 7.64545C1.78328 7.39215 2.68051 7.24436 4.47496 6.94879L5.8433 6.7234C6.11481 6.67868 6.25057 6.65632 6.35878 6.59196C6.45433 6.53513 6.53416 6.45531 6.59099 6.35975C6.65534 6.25155 6.6777 6.11579 6.72242 5.84428L6.94781 4.47594Z" fill="#0F9C9A" stroke="#0F9C9A" stroke-width="1.33333" stroke-linecap="round" stroke-linejoin="round"/>
</g>
<defs>
<clipPath id="clip0_32_14268">
<rect width="16" height="16" fill="white"/>
</clipPath>
</defs>
</svg>
