<svg width="16" height="17" viewBox="0 0 16 17" fill="none" xmlns="http://www.w3.org/2000/svg">
<path d="M12.6667 14.1055L12.6667 5.30547C12.6667 4.18536 12.6667 3.62531 12.4487 3.19749C12.2569 2.82116 11.951 2.5152 11.5746 2.32346C11.1468 2.10547 10.5868 2.10547 9.46667 2.10547H6.53333C5.41323 2.10547 4.85318 2.10547 4.42535 2.32346C4.04903 2.5152 3.74307 2.82116 3.55132 3.19749C3.33333 3.62531 3.33333 4.18536 3.33333 5.30547L3.33333 14.1055M12.6667 14.1055H3.33333M12.6667 14.1055H14M3.33333 14.1055H2M8.01086 9.90817V6.12647M8.01086 6.12647V6.10547M8.01086 6.12647C7.99762 6.12647 7.98438 6.13142 7.97427 6.14132L6.2 7.88006M8.01086 6.12647C8.0241 6.12647 8.03734 6.13142 8.04744 6.14132L9.82172 7.88006" stroke="#0F9C9A" stroke-width="1.33333" stroke-linecap="round"/>
</svg>
