<svg width="16" height="17" viewBox="0 0 16 17" fill="none" xmlns="http://www.w3.org/2000/svg">
<path d="M14.6537 8.50586C14.6537 11.5679 11.7713 14.0569 8.31299 14.0569C4.85473 14.0569 1.3877 11.7357 1.3877 8.27553C1.3877 4.81534 3.25826 2.17186 5.87825 2.17188C8.73431 2.17189 8.53461 4.14533 10.4387 5.09704C12.3428 6.04876 14.6537 5.4438 14.6537 8.50586Z" stroke="#0F9C9A" stroke-width="1.33333" stroke-linecap="round" stroke-linejoin="round"/>
<path d="M9.71191 8.83363C9.71191 10.1058 8.68065 11.137 7.40853 11.137C6.1364 11.137 5.10514 10.1058 5.10514 8.83363C5.10514 7.5615 6.1364 6.53024 7.40853 6.53024C8.68065 6.53024 9.71191 7.5615 9.71191 8.83363Z" stroke="#0F9C9A" stroke-width="1.33333" stroke-linecap="round" stroke-linejoin="round"/>
</svg>
