<svg width="16" height="17" viewBox="0 0 16 17" fill="none" xmlns="http://www.w3.org/2000/svg">
<path d="M14.6401 4.84493L14.28 4.49983C13.4771 3.73031 12.2866 3.68807 11.4395 4.39905C10.6355 5.07383 9.51524 5.07383 8.71123 4.39905L8.66411 4.3595C7.83234 3.66142 6.67341 3.66142 5.84163 4.3595C5.00985 5.05759 3.85093 5.05759 3.01915 4.3595L2.66634 4.0634M13.3068 8.58077L12.9467 8.23567C12.1438 7.46615 10.9533 7.42391 10.1061 8.13489C9.30214 8.80967 8.18191 8.80967 7.3779 8.13489L7.33078 8.09534C6.499 7.39726 5.34008 7.39726 4.5083 8.09534C3.67652 8.79343 2.5176 8.79343 1.68582 8.09534L1.33301 7.79924M14.6401 12.3166L14.28 11.9715C13.4771 11.202 12.2866 11.1598 11.4395 11.8707C10.6355 12.5455 9.51524 12.5455 8.71123 11.8707L8.66411 11.8312C7.83234 11.1331 6.67341 11.1331 5.84163 11.8312C5.00985 12.5293 3.85093 12.5293 3.01915 11.8312L2.66634 11.5351" stroke="#0F9C9A" stroke-width="1.33333" stroke-linecap="round" stroke-linejoin="round"/>
</svg>
