<svg width="16" height="17" viewBox="0 0 16 17" fill="none" xmlns="http://www.w3.org/2000/svg">
<g clip-path="url(#clip0_32_12111)">
<path d="M2.66699 4.6375C2.66699 3.51739 2.66699 2.95734 2.88498 2.52952C3.07673 2.15319 3.38269 1.84723 3.75901 1.65549C4.18683 1.4375 4.74689 1.4375 5.86699 1.4375H10.1337C11.2538 1.4375 11.8138 1.4375 12.2416 1.65549C12.618 1.84723 12.9239 2.15319 13.1157 2.52952C13.3337 2.95734 13.3337 3.51739 13.3337 4.6375V11.5708C13.3337 12.6909 13.3337 13.251 13.1157 13.6788C12.9239 14.0551 12.618 14.3611 12.2416 14.5528C11.8138 14.7708 11.2538 14.7708 10.1337 14.7708H5.86699C4.74689 14.7708 4.18683 14.7708 3.75901 14.5528C3.38269 14.3611 3.07673 14.0551 2.88498 13.6788C2.66699 13.251 2.66699 12.6909 2.66699 11.5708V4.6375Z" stroke="#0F9C9A" stroke-width="1.33333" stroke-linecap="round" stroke-linejoin="round"/>
<path d="M10.667 8.10417C10.667 9.57693 9.47309 10.7708 8.00033 10.7708C6.52757 10.7708 5.33366 9.57693 5.33366 8.10417C5.33366 6.63141 6.52757 5.4375 8.00033 5.4375C9.47309 5.4375 10.667 6.63141 10.667 8.10417Z" stroke="#0F9C9A" stroke-width="1.33333" stroke-linecap="round" stroke-linejoin="round"/>
</g>
<defs>
<clipPath id="clip0_32_12111">
<rect width="16" height="16" fill="white" transform="translate(0 0.105469)"/>
</clipPath>
</defs>
</svg>
