<svg width="16" height="17" viewBox="0 0 16 17" fill="none" xmlns="http://www.w3.org/2000/svg">
<g clip-path="url(#clip0_32_12123)">
<path d="M9.2 2.10417H10.8C11.9201 2.10417 12.4802 2.10417 12.908 2.32215C13.2843 2.5139 13.5903 2.81986 13.782 3.19619C14 3.62401 14 4.18406 14 5.30417V10.9042C14 12.0243 14 12.5843 13.782 13.0121C13.5903 13.3885 13.2843 13.6944 12.908 13.8862C12.4802 14.1042 11.9201 14.1042 10.8 14.1042H9.2C8.0799 14.1042 7.51984 14.1042 7.09202 13.8862C6.7157 13.6944 6.40973 13.3885 6.21799 13.0121C6 12.5843 6 12.0243 6 10.9042M9.33333 4.10417H10.6667M5.55032 6.9375L5.55032 5.10412M5.55032 6.9375L3.87907 8.77083M5.55032 6.9375L7.22168 8.77083M5.55032 6.9375V8.77083M5.55032 5.10412V3.27083M5.55032 5.10412L3.71615 5.10412M5.55032 5.10412H7.38281M5.55032 3.27083L3.87907 1.4375M5.55032 3.27083L7.22168 1.4375M5.55032 3.27083V1.4375M3.71615 5.10412L1.88281 3.43286M3.71615 5.10412L1.88282 6.77547M3.71615 5.10412H1.88282" stroke="#0F9C9A" stroke-width="1.33333" stroke-linecap="round" stroke-linejoin="round"/>
</g>
<defs>
<clipPath id="clip0_32_12123">
<rect width="16" height="16" fill="white" transform="translate(0 0.105469)"/>
</clipPath>
</defs>
</svg>
