<svg width="16" height="17" viewBox="0 0 16 17" fill="none" xmlns="http://www.w3.org/2000/svg">
<path d="M3.99967 14.1055H11.9997M4.53301 12.1055H11.4663C12.5864 12.1055 13.1465 12.1055 13.5743 11.8875C13.9506 11.6957 14.2566 11.3898 14.4484 11.0135C14.6663 10.5856 14.6663 10.0256 14.6663 8.90547V5.30547C14.6663 4.18536 14.6663 3.62531 14.4484 3.19749C14.2566 2.82116 13.9506 2.5152 13.5743 2.32346C13.1465 2.10547 12.5864 2.10547 11.4663 2.10547H4.53301C3.4129 2.10547 2.85285 2.10547 2.42503 2.32346C2.0487 2.5152 1.74274 2.82116 1.55099 3.19749C1.33301 3.62531 1.33301 4.18536 1.33301 5.30547V8.90547C1.33301 10.0256 1.33301 10.5856 1.55099 11.0135C1.74274 11.3898 2.0487 11.6957 2.42503 11.8875C2.85285 12.1055 3.4129 12.1055 4.53301 12.1055Z" stroke="#0F9C9A" stroke-width="1.3" stroke-linecap="round" stroke-linejoin="round"/>
</svg>
