<svg width="16" height="17" viewBox="0 0 16 17" fill="none" xmlns="http://www.w3.org/2000/svg">
<g clip-path="url(#clip0_32_5956)">
<path d="M8.73712 5.00361C8.41906 4.0932 7.55268 3.4401 6.53376 3.4401C5.51484 3.4401 4.64846 4.0932 4.3304 5.00361M6.66634 1.77344V0.773438M2.61426 5.23621H1.61426M11.7184 5.23625H10.6143M10.2393 2.25317L9.45855 3.03388M3.09342 2.2526L3.87413 3.03331M11.6828 9.13058H12.1782C13.5524 9.13058 14.6663 10.2445 14.6663 11.6187C14.6663 12.9928 13.5524 14.1068 12.1782 14.1068H4.99967C2.97463 14.1068 1.33301 12.4651 1.33301 10.4401C1.33301 8.41506 2.97463 6.77344 4.99967 6.77344H8.00856C8.44418 6.77344 8.87689 6.84434 9.28973 6.98335L9.40155 7.02101C10.418 7.36328 11.241 8.12804 11.6599 9.11539C11.6638 9.12458 11.6728 9.13058 11.6828 9.13058Z" stroke="#758282" stroke-width="1.33333" stroke-linecap="round" stroke-linejoin="round"/>
</g>
<defs>
<clipPath id="clip0_32_5956">
<rect width="16" height="16" fill="white" transform="translate(0 0.105469)"/>
</clipPath>
</defs>
</svg>
