<svg width="32" height="33" viewBox="0 0 32 33" fill="none" xmlns="http://www.w3.org/2000/svg">
<g clip-path="url(#clip0_32_5907)">
<path d="M31.2947 15.3968C31.2975 15.3968 31.2995 15.3968 31.3023 15.3968C31.4972 15.3968 31.6831 15.3151 31.8151 15.1719C31.9492 15.0266 32.0156 14.8317 31.9981 14.6347C31.2968 6.92027 25.1891 0.810491 17.474 0.10772C17.2783 0.0923512 17.0813 0.155922 16.936 0.290748C16.7907 0.424875 16.7097 0.61419 16.7118 0.811889C16.8334 11.0642 18.1858 15.2536 31.2947 15.3968ZM31.2947 16.8136C18.1858 16.9568 16.8341 21.1461 16.7125 31.3985C16.7104 31.5962 16.7914 31.7855 16.9367 31.9196C17.0667 32.0391 17.2364 32.1055 17.4111 32.1055C17.432 32.1055 17.4537 32.1048 17.4746 32.1027C25.1898 31.3999 31.2975 25.2908 31.9981 17.5757C32.0156 17.3787 31.9499 17.1838 31.8151 17.0385C31.6803 16.8932 31.4924 16.8212 31.2947 16.8136ZM14.4791 0.111213C6.78847 0.834243 0.700351 6.94263 0.00246923 14.6361C-0.0149953 14.8331 0.0506713 15.028 0.185497 15.1733C0.317529 15.3165 0.50405 15.3975 0.698255 15.3975C0.701049 15.3975 0.703843 15.3975 0.706638 15.3975C13.7722 15.2473 15.1211 11.0601 15.2441 0.814683C15.2462 0.616985 15.1644 0.426971 15.0191 0.292844C14.8724 0.158716 14.6761 0.0930499 14.4791 0.111213ZM0.705939 16.8129C0.488681 16.7884 0.318227 16.8918 0.184799 17.0371C0.0506714 17.1824 -0.0156938 17.3773 0.0017707 17.5743C0.699652 25.2678 6.78847 31.3762 14.4791 32.0992C14.5008 32.1013 14.5231 32.102 14.5448 32.102C14.7194 32.102 14.8885 32.0363 15.0184 31.9169C15.1637 31.7827 15.2455 31.5927 15.2434 31.395C15.1204 21.1503 13.7722 16.9631 0.705939 16.8129Z" fill="white"/>
</g>
<defs>
<clipPath id="clip0_32_5907">
<rect width="32" height="32" fill="white" transform="translate(0 0.105469)"/>
</clipPath>
</defs>
</svg>
