<svg width="18" height="19" viewBox="0 0 18 19" fill="none" xmlns="http://www.w3.org/2000/svg">
<path d="M18 13.6055C18 14.1359 17.7893 14.6446 17.4142 15.0197C17.0391 15.3948 16.5304 15.6055 16 15.6055H2C1.46957 15.6055 0.960859 15.3948 0.585786 15.0197C0.210714 14.6446 0 14.1359 0 13.6055V4.60547C0 4.07504 0.210714 3.56633 0.585786 3.19126C0.960859 2.81618 1.46957 2.60547 2 2.60547H16C16.5304 2.60547 17.0391 2.81618 17.4142 3.19126C17.7893 3.56633 18 4.07504 18 4.60547V13.6055Z" fill="#DE2910"/>
<path d="M5.56757 4.59328L5.93557 4.77128L6.23007 4.48828L6.17457 4.89328L6.53457 5.08628L6.13257 5.15828L6.06057 5.56028L5.86757 5.20028L5.46257 5.25578L5.74557 4.96128L5.56757 4.59328ZM7.90007 6.06378L7.72207 6.43128L8.00507 6.72628L7.60057 6.67028L7.40757 7.03078L7.33557 6.62828L6.93307 6.55628L7.29357 6.36328L7.23757 5.95878L7.53257 6.24178L7.90007 6.06378ZM7.42157 7.95328L7.55557 8.33928L7.96407 8.34778L7.63857 8.59428L7.75707 8.98578L7.42157 8.75228L7.08607 8.98578L7.20407 8.59428L6.87857 8.34778L7.28707 8.33928L7.42157 7.95328ZM5.56757 9.59328L5.93557 9.77128L6.23007 9.48828L6.17457 9.89328L6.53457 10.0863L6.13257 10.1583L6.06057 10.5603L5.86757 10.2003L5.46257 10.2558L5.74557 9.96128L5.56757 9.59328ZM3.49957 5.58028L3.96407 6.91578L5.37707 6.94478L4.25057 7.79878L4.66007 9.15178L3.49957 8.34428L2.33907 9.15178L2.74857 7.79878L1.62207 6.94478L3.03507 6.91578L3.49957 5.58028Z" fill="#FFDE02"/>
</svg>
