<svg width="127" height="17" viewBox="0 0 127 17" fill="none" xmlns="http://www.w3.org/2000/svg">
<path d="M122.52 3.72656C123.195 3.72656 123.804 3.83705 124.347 4.05803C124.897 4.27901 125.363 4.59256 125.745 4.99868C126.133 5.4048 126.432 5.89752 126.641 6.47684C126.85 7.05616 126.954 7.70715 126.954 8.42981C126.954 9.15247 126.85 9.80346 126.641 10.3828C126.432 10.9621 126.133 11.4578 125.745 11.8699C125.363 12.276 124.897 12.5896 124.347 12.8105C123.804 13.0315 123.195 13.142 122.52 13.142C121.839 13.142 121.224 13.0315 120.674 12.8105C120.131 12.5896 119.665 12.276 119.277 11.8699C118.889 11.4578 118.59 10.9621 118.381 10.3828C118.172 9.80346 118.067 9.15247 118.067 8.42981C118.067 7.70715 118.172 7.05616 118.381 6.47684C118.59 5.89752 118.889 5.4048 119.277 4.99868C119.665 4.59256 120.131 4.27901 120.674 4.05803C121.224 3.83705 121.839 3.72656 122.52 3.72656ZM122.52 11.637C123.344 11.637 123.956 11.3622 124.356 10.8128C124.762 10.2574 124.965 9.46602 124.965 8.43877C124.965 7.41152 124.762 6.62018 124.356 6.06475C123.956 5.50334 123.344 5.22264 122.52 5.22264C121.684 5.22264 121.063 5.50334 120.656 6.06475C120.25 6.62018 120.047 7.41152 120.047 8.43877C120.047 9.46602 120.25 10.2574 120.656 10.8128C121.063 11.3622 121.684 11.637 122.52 11.637Z" fill="#FB5E29"/>
<path d="M111.8 11.6889C112.774 11.6232 113.52 11.3096 114.04 10.7482C114.566 10.1868 114.828 9.4164 114.828 8.43694C114.828 7.45747 114.566 6.68703 114.04 6.12563C113.52 5.55825 112.774 5.24171 111.8 5.17602V11.6889ZM110.116 5.17602C109.143 5.24171 108.393 5.55825 107.868 6.12563C107.348 6.68703 107.088 7.45747 107.088 8.43694C107.088 9.4164 107.348 10.1868 107.868 10.7482C108.393 11.3096 109.143 11.6232 110.116 11.6889V5.17602ZM111.854 3.73369C112.595 3.76952 113.267 3.9039 113.87 4.13682C114.473 4.36975 114.987 4.68927 115.411 5.09539C115.835 5.50151 116.163 5.98527 116.396 6.54668C116.629 7.10808 116.746 7.73518 116.746 8.42798C116.746 9.12077 116.629 9.74787 116.396 10.3093C116.163 10.8707 115.835 11.3544 115.411 11.7606C114.987 12.1667 114.473 12.4892 113.87 12.7281C113.267 12.961 112.595 13.0954 111.854 13.1312V16.1055H110.053V13.1312C109.313 13.0954 108.641 12.961 108.038 12.7281C107.435 12.4892 106.921 12.1667 106.497 11.7606C106.073 11.3544 105.744 10.8707 105.511 10.3093C105.279 9.74787 105.162 9.12077 105.162 8.42798C105.162 7.74115 105.279 7.11704 105.511 6.55564C105.744 5.99423 106.073 5.51047 106.497 5.10435C106.921 4.69823 107.435 4.37871 108.038 4.14578C108.641 3.90689 109.313 3.76952 110.053 3.73369V0.105469H111.854V3.73369Z" fill="#FB5E29"/>
<path d="M103.336 3.86719V13.0049H101.419V8.85711H97.4681V13.0049H95.542V3.86719H97.4681V7.40582H101.419V3.86719H103.336Z" fill="#FB5E29"/>
<path d="M92.9667 0.105469V13.0058H90.8704V4.44142C90.8704 4.15474 90.8764 3.85612 90.8883 3.54556C90.9062 3.23499 90.9391 2.90054 90.9869 2.5422C90.8734 2.85276 90.7509 3.14242 90.6195 3.41118C90.4941 3.67396 90.3687 3.90689 90.2433 4.10995L84.7786 12.3518C84.7308 12.4295 84.6741 12.5071 84.6084 12.5848C84.5486 12.6624 84.477 12.7341 84.3933 12.7998C84.3157 12.8595 84.2321 12.9102 84.1425 12.9521C84.0529 12.9879 83.9574 13.0058 83.8558 13.0058H82.2881V0.105469H84.3933V8.6609C84.3933 8.94757 84.3844 9.24918 84.3665 9.56571C84.3545 9.87628 84.3247 10.2048 84.2769 10.5512C84.3904 10.2466 84.5098 9.96288 84.6352 9.70009C84.7666 9.43134 84.892 9.19841 85.0115 9.00132L90.4762 0.759444C90.524 0.681803 90.5777 0.604162 90.6375 0.526522C90.7032 0.448881 90.7748 0.380198 90.8525 0.320475C90.9361 0.254778 91.0227 0.204013 91.1123 0.168178C91.2019 0.126372 91.2974 0.105469 91.3989 0.105469H92.9667Z" fill="#FB5E29"/>
<path d="M72.4524 11.6074C72.7331 11.6074 72.978 11.5716 73.187 11.4999C73.402 11.4222 73.5782 11.3207 73.7156 11.1953C73.8589 11.0639 73.9634 10.9086 74.0291 10.7295C74.1008 10.5503 74.1367 10.3532 74.1367 10.1382C74.1367 9.94707 74.1038 9.7679 74.0381 9.60067C73.9784 9.42747 73.8798 9.27816 73.7425 9.15274C73.6111 9.02135 73.4379 8.91982 73.2229 8.84815C73.0079 8.77051 72.7451 8.73169 72.4345 8.73169H70.6607V11.6074H72.4524ZM72.4256 7.34311C73.0586 7.34311 73.5932 7.42075 74.0291 7.57604C74.4651 7.72534 74.8175 7.92841 75.0863 8.18522C75.355 8.44203 75.5491 8.74065 75.6686 9.08107C75.788 9.41553 75.8477 9.76491 75.8477 10.1292C75.8477 10.5533 75.7731 10.9415 75.6238 11.2938C75.4745 11.6402 75.2535 11.9418 74.9608 12.1987C74.6742 12.4555 74.3188 12.6555 73.8948 12.7989C73.4767 12.9362 72.9959 13.0049 72.4524 13.0049H68.8242V3.86719H70.6607V7.34311H72.4256Z" fill="#FB5E29"/>
<path d="M66.4697 3.86719V13.0049H64.5526V8.85711H60.6019V13.0049H58.6758V3.86719H60.6019V7.40582H64.5526V3.86719H66.4697Z" fill="#FB5E29"/>
<path d="M57.4224 3.86719L52.3877 15.6029C52.322 15.7403 52.2414 15.8478 52.1458 15.9254C52.0562 16.0031 51.9159 16.0419 51.7248 16.0419H50.3004L51.9846 12.3868L48.2578 3.86719H49.9331C50.0943 3.86719 50.2168 3.90601 50.3004 3.98365C50.39 4.05532 50.4556 4.14192 50.4975 4.24345L52.6744 9.43046C52.7281 9.57977 52.7759 9.72908 52.8177 9.87839C52.8655 10.0217 52.9103 10.171 52.9521 10.3263C52.9999 10.171 53.0477 10.0187 53.0954 9.86943C53.1432 9.72012 53.197 9.57081 53.2567 9.4215L55.344 4.24345C55.3858 4.13595 55.4545 4.04636 55.5501 3.97469C55.6516 3.90302 55.7621 3.86719 55.8816 3.86719H57.4224Z" fill="#FB5E29"/>
<path d="M46.9591 3.86719V13.0049H45.042V9.28712C44.2596 9.48421 43.528 9.60366 42.8471 9.64546C42.1722 9.6813 41.5839 9.61262 41.0823 9.43942C40.5806 9.26622 40.1864 8.97357 39.8997 8.56148C39.6131 8.14938 39.4697 7.59395 39.4697 6.89518V3.86719H41.3869V6.59955C41.3869 6.9997 41.4615 7.32221 41.6108 7.56708C41.7601 7.80597 41.9841 7.97618 42.2827 8.07771C42.5873 8.17327 42.9666 8.20612 43.4205 8.17626C43.8803 8.1464 44.4208 8.06278 45.042 7.92542V3.86719H46.9591Z" fill="#FB5E29"/>
<path d="M35.2005 11.6074C35.4812 11.6074 35.7261 11.5716 35.9351 11.4999C36.1501 11.4222 36.3263 11.3207 36.4636 11.1953C36.607 11.0639 36.7115 10.9086 36.7772 10.7295C36.8489 10.5503 36.8847 10.3532 36.8847 10.1382C36.8847 9.94707 36.8518 9.7679 36.7862 9.60067C36.7264 9.42747 36.6279 9.27816 36.4905 9.15274C36.3591 9.02135 36.1859 8.91982 35.9709 8.84815C35.7559 8.77051 35.4931 8.73169 35.1826 8.73169H33.4088V11.6074H35.2005ZM35.1736 7.34311C35.8067 7.34311 36.3412 7.42075 36.7772 7.57604C37.2132 7.72534 37.5655 7.92841 37.8343 8.18522C38.1031 8.44203 38.2972 8.74065 38.4166 9.08107C38.5361 9.41553 38.5958 9.76491 38.5958 10.1292C38.5958 10.5533 38.5211 10.9415 38.3718 11.2938C38.2225 11.6402 38.0015 11.9418 37.7089 12.1987C37.4222 12.4555 37.0669 12.6555 36.6428 12.7989C36.2247 12.9362 35.744 13.0049 35.2005 13.0049H31.5723V3.86719H33.4088V7.34311H35.1736Z" fill="#FB5E29"/>
<path d="M29.2178 3.86719V13.0049H27.3006V8.85711H23.3499V13.0049H21.4238V3.86719H23.3499V7.40582H27.3006V3.86719H29.2178Z" fill="#FB5E29"/>
<path d="M20.1705 3.86719L15.1358 15.6029C15.0701 15.7403 14.9894 15.8478 14.8939 15.9254C14.8043 16.0031 14.6639 16.0419 14.4728 16.0419H13.0484L14.7326 12.3868L11.0059 3.86719H12.6811C12.8424 3.86719 12.9648 3.90601 13.0484 3.98365C13.138 4.05532 13.2037 4.14192 13.2455 4.24345L15.4224 9.43046C15.4762 9.57977 15.524 9.72908 15.5658 9.87839C15.6135 10.0217 15.6583 10.171 15.7001 10.3263C15.7479 10.171 15.7957 10.0187 15.8435 9.86943C15.8913 9.72012 15.945 9.57081 16.0047 9.4215L18.0921 4.24345C18.1339 4.13595 18.2026 4.04636 18.2981 3.97469C18.3997 3.90302 18.5102 3.86719 18.6296 3.86719H20.1705Z" fill="#FB5E29"/>
<path d="M11.6193 13.0058H9.53191C9.38858 13.0058 9.27212 12.967 9.18253 12.8893C9.09295 12.8117 9.02128 12.7251 8.96753 12.6295L5.76036 7.46045C5.73647 7.53212 5.70959 7.6008 5.67973 7.6665C5.65584 7.73219 5.62598 7.7949 5.59015 7.85463L2.49048 12.6295C2.42479 12.7251 2.35013 12.8117 2.26652 12.8893C2.18888 12.967 2.08436 13.0058 1.95297 13.0058H0L4.35386 6.37647L0.179171 0.105469H2.25756C2.40687 0.105469 2.51437 0.129358 2.58007 0.177137C2.65174 0.218944 2.71445 0.28464 2.7682 0.374225L5.9037 5.30144C5.93356 5.22977 5.96342 5.1581 5.99328 5.08643C6.02314 5.01476 6.06196 4.94011 6.10974 4.86247L9.03024 0.41006C9.08996 0.308529 9.15565 0.233874 9.22732 0.186095C9.29899 0.132344 9.38559 0.105469 9.48712 0.105469H11.4849L7.27436 6.28688L11.6193 13.0058Z" fill="#FB5E29"/>
</svg>
