<svg width="16" height="17" viewBox="0 0 16 17" fill="none" xmlns="http://www.w3.org/2000/svg">
<path d="M13.3337 7.4388C13.3337 10.7456 10.2278 13.276 8.75635 14.2893C8.53 14.4451 8.41682 14.5231 8.23921 14.5668C8.10606 14.5995 7.89459 14.5995 7.76144 14.5668C7.58383 14.5231 7.47065 14.4451 7.2443 14.2893C5.77286 13.276 2.66699 10.7456 2.66699 7.4388C2.66699 4.49328 5.05481 2.10547 8.00033 2.10547C10.9458 2.10547 13.3337 4.49328 13.3337 7.4388Z" stroke="white" stroke-width="1.2" stroke-linecap="round" stroke-linejoin="round"/>
<path d="M9.73262 7.43884C9.73262 8.39557 8.95705 9.17114 8.00033 9.17114C7.0436 9.17114 6.26803 8.39557 6.26803 7.43884C6.26803 6.48212 7.0436 5.70654 8.00033 5.70654C8.95705 5.70654 9.73262 6.48212 9.73262 7.43884Z" stroke="white" stroke-width="1.2" stroke-linecap="round" stroke-linejoin="round"/>
</svg>
