<svg width="16" height="17" viewBox="0 0 16 17" fill="none" xmlns="http://www.w3.org/2000/svg">
<path d="M7.99967 14.1055C11.3134 14.1055 13.9997 11.4192 13.9997 8.10547C13.9997 4.79176 11.3134 2.10547 7.99967 2.10547C4.68597 2.10547 1.99967 4.79176 1.99967 8.10547C1.99967 8.60869 2.06162 9.09743 2.17831 9.5645C2.36217 10.3004 2.45409 10.6684 2.46694 10.8371C2.48286 11.0463 2.48168 11.0787 2.45051 11.2861C2.42536 11.4535 2.35856 11.6564 2.22495 12.0623L2.20972 12.1086C1.92246 12.9813 1.77884 13.4177 1.87952 13.7284C1.96733 13.9993 2.16651 14.22 2.42709 14.335C2.72589 14.4668 3.17462 14.3685 4.07208 14.1718L5.07491 13.9519C5.36873 13.8875 5.51563 13.8553 5.63693 13.8439C5.78579 13.8299 5.81186 13.8295 5.96104 13.8397C6.08259 13.848 6.34198 13.8978 6.86078 13.9975C7.22952 14.0684 7.61026 14.1055 7.99967 14.1055Z" fill="#A5AEAE" stroke="#A5AEAE" stroke-width="1.33333" stroke-linecap="round" stroke-linejoin="round"/>
</svg>
