<svg width="16" height="17" viewBox="0 0 16 17" fill="none" xmlns="http://www.w3.org/2000/svg">
<g clip-path="url(#clip0_32_5885)">
<path
        d="M8.60085 1.4375C11.9146 1.4375 14.6008 4.12379 14.6008 7.4375M9.26751 4.10417C10.7403 4.10417 11.9342 5.29807 11.9342 6.77083M4.83081 11.2731C6.16681 12.6091 7.60525 13.461 8.78444 13.9941C8.84336 14.0207 8.87282 14.034 9.20847 14.1204C10.0924 14.3477 11.7578 14.0439 12.5046 13.5192C12.7882 13.3199 12.9102 13.1979 13.1542 12.9539C13.4046 12.7035 13.5298 12.5783 13.6097 12.4511C13.8822 12.0174 13.8822 11.466 13.6097 11.0323C13.5298 10.9051 13.4046 10.7799 13.1542 10.5295L12.9756 10.3509C12.7299 10.1053 12.6071 9.98243 12.4677 9.91083C12.262 9.8052 12.0261 9.77408 11.8001 9.82278C11.647 9.85578 11.4965 9.94256 11.1955 10.1161L10.4616 10.5394C10.3068 10.6286 10.2295 10.6732 10.1174 10.7002C10.0363 10.7198 9.89657 10.7262 9.81407 10.7142C9.69994 10.6975 9.63858 10.6692 9.51584 10.6127C9.01797 10.3835 8.19156 9.90878 7.27696 8.99418C6.34218 8.0594 5.86691 7.21674 5.64361 6.72283C5.592 6.60867 5.56619 6.55158 5.54945 6.44428C5.5374 6.367 5.54073 6.23466 5.55665 6.15808C5.57877 6.05176 5.61691 5.97757 5.6932 5.8292L6.11194 5.01477C6.28927 4.66986 6.37794 4.49741 6.39997 4.32204C6.42342 4.13543 6.39378 3.946 6.31444 3.77549C6.23987 3.61523 6.10275 3.47812 5.82852 3.20389L5.5744 2.94976C5.32399 2.69936 5.19879 2.57415 5.07159 2.49423C4.63792 2.22174 4.0865 2.22174 3.65284 2.49423C3.52563 2.57415 3.40043 2.69936 3.15003 2.94976C2.90602 3.19377 2.78401 3.31577 2.58475 3.59934C2.06001 4.34608 1.75624 6.01154 1.98357 6.89546C2.0699 7.23111 2.08322 7.26057 2.10985 7.31949C2.64295 8.49868 3.49482 9.93712 4.83081 11.2731Z" stroke="#0F9C9A" stroke-width="1.3" stroke-linecap="round"/>
</g>
<defs>
<clipPath id="clip0_32_5885">
<rect width="16" height="16" fill="white" transform="translate(0 0.105469)"/>
</clipPath>
</defs>
</svg>
