<svg width="16" height="17" viewBox="0 0 16 17" fill="none" xmlns="http://www.w3.org/2000/svg">
<rect width="16" height="16" transform="translate(0 0.105469)" fill="white"/>
<path d="M6.57483 3.88172C7.0348 2.98039 7.26479 2.52973 7.57442 2.38413C7.84397 2.25737 8.15598 2.25737 8.42552 2.38413C8.73515 2.52973 8.96514 2.98039 9.42512 3.88172L9.92822 4.86755C10.0638 5.1332 10.1316 5.26602 10.2289 5.3696C10.3151 5.46133 10.4178 5.53596 10.5317 5.58958C10.6603 5.65013 10.8075 5.67355 11.1021 5.7204L12.1951 5.89424C13.1945 6.05318 13.6941 6.13265 13.9283 6.38213C14.1321 6.59931 14.2286 6.89605 14.1913 7.19157C14.1485 7.53104 13.791 7.88904 13.0759 8.60502L12.2938 9.38815C12.083 9.59917 11.9777 9.70468 11.9092 9.82924C11.8486 9.93955 11.8094 10.0603 11.7936 10.1852C11.7757 10.3262 11.799 10.4735 11.8454 10.7681L12.0179 11.8614C12.1755 12.8609 12.2543 13.3607 12.0894 13.6605C11.9459 13.9215 11.6934 14.1048 11.4009 14.1607C11.0648 14.2249 10.6138 13.9955 9.71192 13.5367L8.72544 13.0349C8.45962 12.8996 8.32672 12.832 8.1871 12.8054C8.06346 12.7819 7.93648 12.7819 7.81284 12.8054C7.67323 12.832 7.54032 12.8996 7.2745 13.0349L6.28802 13.5367C5.38611 13.9955 4.93515 14.2249 4.59907 14.1607C4.3065 14.1048 4.05408 13.9215 3.91052 13.6605C3.7456 13.3607 3.82443 12.8609 3.98209 11.8614L4.15453 10.7681C4.20099 10.4735 4.22423 10.3262 4.20638 10.1852C4.19057 10.0603 4.15133 9.93955 4.09072 9.82924C4.02229 9.70468 3.91691 9.59917 3.70616 9.38815L2.92404 8.60502C2.20897 7.88904 1.85144 7.53104 1.80864 7.19157C1.77139 6.89605 1.8678 6.59931 2.07164 6.38213C2.30581 6.13265 2.80548 6.05318 3.80483 5.89424L4.89789 5.7204C5.19242 5.67355 5.33969 5.65013 5.46827 5.58958C5.58214 5.53596 5.68487 5.46133 5.77105 5.3696C5.86837 5.26602 5.93615 5.1332 6.07172 4.86755L6.57483 3.88172Z" fill="#FFB200" stroke="#FFB200" stroke-width="1.33333" stroke-linecap="round" stroke-linejoin="round"/>
</svg>
