<svg width="16" height="16" viewBox="0 0 16 16" fill="none" xmlns="http://www.w3.org/2000/svg">
<rect width="16" height="16" fill="white"/>
<path d="M6.57483 3.77429C7.0348 2.87297 7.26479 2.42231 7.57442 2.2767C7.84397 2.14995 8.15598 2.14995 8.42552 2.2767C8.73515 2.42231 8.96514 2.87297 9.42512 3.77429L9.92822 4.76013C10.0638 5.02578 10.1316 5.1586 10.2289 5.26218C10.3151 5.35391 10.4178 5.42854 10.5317 5.48216C10.6603 5.54271 10.8075 5.56613 11.1021 5.61297L12.1951 5.78682C13.1945 5.94575 13.6941 6.02522 13.9283 6.27471C14.1321 6.49189 14.2286 6.78863 14.1913 7.08415C14.1485 7.42362 13.791 7.78161 13.0759 8.4976L12.2938 9.28072C12.083 9.49174 11.9777 9.59726 11.9092 9.72182C11.8486 9.83213 11.8094 9.95289 11.7936 10.0778C11.7757 10.2188 11.799 10.3661 11.8454 10.6607L12.0179 11.7539C12.1755 12.7535 12.2543 13.2533 12.0894 13.5531C11.9459 13.814 11.6934 13.9974 11.4009 14.0533C11.0648 14.1175 10.6138 13.8881 9.71192 13.4293L8.72544 12.9274C8.45962 12.7922 8.32672 12.7246 8.1871 12.698C8.06346 12.6745 7.93648 12.6745 7.81284 12.698C7.67323 12.7246 7.54032 12.7922 7.2745 12.9274L6.28802 13.4293C5.38611 13.8881 4.93515 14.1175 4.59907 14.0533C4.3065 13.9974 4.05408 13.814 3.91052 13.5531C3.7456 13.2533 3.82443 12.7535 3.98209 11.7539L4.15453 10.6607C4.20099 10.3661 4.22423 10.2188 4.20638 10.0778C4.19057 9.95289 4.15133 9.83213 4.09072 9.72182C4.02229 9.59726 3.91691 9.49174 3.70616 9.28072L2.92404 8.4976C2.20897 7.78162 1.85144 7.42362 1.80864 7.08415C1.77139 6.78863 1.8678 6.49189 2.07164 6.27471C2.30581 6.02522 2.80548 5.94575 3.80483 5.78682L4.89789 5.61297C5.19242 5.56613 5.33969 5.54271 5.46827 5.48216C5.58214 5.42854 5.68487 5.35391 5.77105 5.26218C5.86837 5.1586 5.93615 5.02578 6.07172 4.76013L6.57483 3.77429Z" fill="#A5AEAE" stroke="#A5AEAE" stroke-width="1.33333" stroke-linecap="round" stroke-linejoin="round"/>
</svg>
