<svg width="32" height="33" viewBox="0 0 32 33" fill="none" xmlns="http://www.w3.org/2000/svg">
<rect y="0.105469" width="32" height="32" rx="16" fill="url(#paint0_linear_32_5900)"/>
<path fill-rule="evenodd" clip-rule="evenodd" d="M7.24236 15.9374C11.9067 13.9052 15.017 12.5655 16.5732 11.9182C21.0166 10.07 21.9399 9.749 22.5417 9.73839C22.674 9.73606 22.97 9.76886 23.1617 9.92442C23.3235 10.0558 23.3681 10.2332 23.3894 10.3577C23.4107 10.4822 23.4372 10.7659 23.4161 10.9876C23.1753 13.5176 22.1335 19.6571 21.6034 22.4908C21.3791 23.6898 20.9375 24.0918 20.51 24.1311C19.5808 24.2166 18.8753 23.5171 17.9753 22.9272C16.5671 22.0041 15.7716 21.4294 14.4047 20.5287C12.825 19.4877 13.849 18.9155 14.7493 17.9805C14.9849 17.7358 19.0787 14.0121 19.158 13.6743C19.1679 13.632 19.1771 13.4746 19.0835 13.3914C18.99 13.3083 18.8519 13.3367 18.7523 13.3593C18.611 13.3914 16.3614 14.8783 12.0034 17.8201C11.3648 18.2586 10.7864 18.4722 10.2682 18.461C9.69694 18.4487 8.59802 18.138 7.78109 17.8724C6.77909 17.5467 5.98272 17.3745 6.05206 16.8214C6.08818 16.5332 6.48495 16.2386 7.24236 15.9374Z" fill="white"/>
<defs>
<linearGradient id="paint0_linear_32_5900" x1="16" y1="0.105469" x2="16" y2="31.8681" gradientUnits="userSpaceOnUse">
<stop stop-color="#2AABEE"/>
<stop offset="1" stop-color="#229ED9"/>
</linearGradient>
</defs>
</svg>
