<svg width="24" height="24" viewBox="0 0 24 24" fill="none" xmlns="http://www.w3.org/2000/svg">
<path d="M19.796 17C20.5617 17.4903 21 18.1056 21 18.7127C21 20.5537 16.9706 22 12 22C7.02944 22 3 20.5537 3 18.7127C3 18.1268 3.40819 17.5301 4.125 17.0517M19 9.15789C19 13.4791 15.1354 16.8125 13.1492 18.2403C12.8132 18.4819 12.6451 18.6027 12.3701 18.6727C12.167 18.7244 11.833 18.7244 11.6299 18.6727C11.3549 18.6027 11.1868 18.4819 10.8508 18.2403C8.86456 16.8125 5 13.4791 5 9.15789C5 5.2047 8.13401 2 12 2C15.866 2 19 5.2047 19 9.15789ZM14 9C14 10.1046 13.1046 11 12 11C10.8954 11 10 10.1046 10 9C10 7.89543 10.8954 7 12 7C13.1046 7 14 7.89543 14 9Z" stroke="#FB5E29" stroke-width="2" stroke-linecap="round" stroke-linejoin="round"/>
</svg>
