<svg width="24" height="24" viewBox="0 0 24 24" fill="none" xmlns="http://www.w3.org/2000/svg">
<path d="M12.9018 1.99805C17.8723 1.99805 21.9018 6.02748 21.9018 10.998M13.9018 5.99805C16.1109 5.99805 17.9018 7.78891 17.9018 9.99805M7.24671 16.7515C9.2507 18.7555 11.4084 20.0333 13.1772 20.8329C13.2655 20.8729 13.3097 20.8928 13.8132 21.0223C15.1391 21.3633 17.6373 20.9077 18.7574 20.1206C19.1827 19.8217 19.3657 19.6387 19.7317 19.2726C20.1073 18.897 20.2951 18.7092 20.415 18.5184C20.8238 17.8679 20.8238 17.0408 20.415 16.3903C20.2951 16.1995 20.1073 16.0117 19.7317 15.6361L19.4638 15.3682C19.0953 14.9997 18.9111 14.8154 18.702 14.708C18.3935 14.5496 18.0397 14.5029 17.7007 14.576C17.4709 14.6255 17.2452 14.7556 16.7938 15.016L15.6928 15.6508C15.4607 15.7847 15.3447 15.8516 15.1765 15.8922C15.0549 15.9215 14.8453 15.9311 14.7216 15.913C14.5504 15.888 14.4584 15.8456 14.2742 15.7609C13.5274 15.4171 12.2878 14.705 10.9159 13.3331C9.51376 11.9309 8.80085 10.6669 8.46591 9.92605C8.38849 9.7548 8.34978 9.66917 8.32467 9.50822C8.30659 9.3923 8.31158 9.19378 8.33547 9.07892C8.36864 8.91943 8.42585 8.80816 8.54028 8.5856L9.1684 7.36395C9.43439 6.84659 9.56739 6.58791 9.60045 6.32485C9.63562 6.04495 9.59115 5.7608 9.47214 5.50503C9.36029 5.26464 9.15462 5.05897 8.74327 4.64763L8.36208 4.26643C7.98648 3.89083 7.79868 3.70303 7.60787 3.58314C6.95737 3.1744 6.13024 3.1744 5.47974 3.58314C5.28894 3.70303 5.10114 3.89083 4.72553 4.26643C4.35952 4.63245 4.17651 4.81546 3.87761 5.2408C3.0905 6.36092 2.63485 8.85911 2.97585 10.185C3.10534 10.6885 3.12531 10.7327 3.16527 10.821C3.96491 12.5898 5.24272 14.7475 7.24671 16.7515Z" stroke="#FB5E29" stroke-width="1.95" stroke-linecap="round"/>
</svg>
