<svg width="24" height="24" viewBox="0 0 24 24" fill="none" xmlns="http://www.w3.org/2000/svg">
<path d="M18.2444 9.93785L18.2527 9.9424M15.3487 8.35685L15.357 8.36141M12.5001 6.80172L12.5085 6.80627M6.75621 9.93785L6.74787 9.9424M9.65194 8.35685L9.6436 8.36141M3.95001 12.2235V17.4419C3.95001 19.038 3.95001 19.8361 4.26065 20.4458C4.53389 20.982 4.96989 21.418 5.50616 21.6913C6.11582 22.0019 6.9139 22.0019 8.51007 22.0019H16.4902C18.0863 22.0019 18.8844 22.0019 19.4941 21.6913C20.0304 21.418 20.4664 20.982 20.7396 20.4458C21.0502 19.8361 21.0502 19.038 21.0502 17.4419V12.2235C21.0502 11.7934 21.2211 11.3809 21.5252 11.0768C21.8294 10.7726 22.0002 10.3601 22.0002 9.93001V9.62336C22.0002 8.76194 21.5313 7.96881 20.7765 7.55368L14.6977 4.21034C13.8952 3.76898 13.494 3.54831 13.0695 3.46175C12.6938 3.38514 12.3065 3.38514 11.9307 3.46175C11.5062 3.54831 11.105 3.76898 10.3025 4.21034L4.22375 7.55368C3.46895 7.96881 3 8.76194 3 9.62336V9.93001C3 10.3601 3.17086 10.7726 3.47501 11.0768C3.77915 11.3809 3.95001 11.7934 3.95001 12.2235ZM14.8752 22.0019V16.7768C14.8752 15.4652 13.8118 14.4018 12.5001 14.4018C11.1884 14.4018 10.1251 15.4652 10.1251 16.7768V22.0019H14.8752Z" stroke="#FB5E29" stroke-width="1.95" stroke-linecap="round" stroke-linejoin="round"/>
</svg>
