<svg width="24" height="24" viewBox="0 0 24 24" fill="none" xmlns="http://www.w3.org/2000/svg">
<path d="M21.9811 12.6006C21.9811 17.1937 17.6574 20.9272 12.47 20.9272C7.28258 20.9272 2.08203 17.4454 2.08203 12.2551C2.08203 7.06481 4.88787 3.09959 8.81786 3.09961C13.1019 3.09963 12.8024 6.05979 15.6586 7.48736C18.5148 8.91493 21.9811 8.0075 21.9811 12.6006Z" stroke="#FB5E29" stroke-width="2" stroke-linecap="round" stroke-linejoin="round"/>
<path d="M14.5684 13.0922C14.5684 15.0004 13.0215 16.5473 11.1133 16.5473C9.20509 16.5473 7.6582 15.0004 7.6582 13.0922C7.6582 11.1841 9.20509 9.63716 11.1133 9.63716C13.0215 9.63716 14.5684 11.1841 14.5684 13.0922Z" stroke="#FB5E29" stroke-width="2" stroke-linecap="round" stroke-linejoin="round"/>
</svg>
