<svg width="24" height="24" viewBox="0 0 24 24" fill="none" xmlns="http://www.w3.org/2000/svg">
<path d="M12.2585 23C12.8108 23 13.2585 22.5523 13.2585 22C13.2585 21.4477 12.8108 21 12.2585 21V22V23ZM19 11.2993C19 11.8516 19.4477 12.2993 20 12.2993C20.5523 12.2993 21 11.8516 21 11.2993H20H19ZM19.673 3.63803L20.564 3.18404V3.18404L19.673 3.63803ZM18.362 2.32698L17.908 3.21799L17.908 3.21799L18.362 2.32698ZM5.63803 21.673L5.18404 22.564H5.18404L5.63803 21.673ZM4.32698 20.362L3.43597 20.816H3.43597L4.32698 20.362ZM4.32698 3.63803L3.43597 3.18404L4.32698 3.63803ZM5.63803 2.32698L5.18404 1.43597L5.63803 2.32698ZM17.9973 15.8306L17.2465 16.4911L17.9973 17.3445L18.748 16.4911L17.9973 15.8306ZM17.9973 22L17.3498 22.7621C17.7232 23.0793 18.2713 23.0793 18.6447 22.7621L17.9973 22ZM8 6C7.44772 6 7 6.44772 7 7C7 7.55228 7.44772 8 8 8V7V6ZM16 8C16.5523 8 17 7.55228 17 7C17 6.44772 16.5523 6 16 6V7V8ZM8 10C7.44772 10 7 10.4477 7 11C7 11.5523 7.44772 12 8 12V11V10ZM16 12C16.5523 12 17 11.5523 17 11C17 10.4477 16.5523 10 16 10V11V12ZM8 14C7.44772 14 7 14.4477 7 15C7 15.5523 7.44772 16 8 16V15V14ZM10.5053 16C11.0575 16 11.5053 15.5523 11.5053 15C11.5053 14.4477 11.0575 14 10.5053 14V15V16ZM12.2585 22V21H8.8V22V23H12.2585V22ZM4 17.2H5V6.8H4H3V17.2H4ZM20 6.8H19V11.2993H20H21V6.8H20ZM8.8 2V3H15.2V2V1H8.8V2ZM20 6.8H21C21 5.97642 21.0008 5.2986 20.9558 4.74817C20.9099 4.18608 20.8113 3.66937 20.564 3.18404L19.673 3.63803L18.782 4.09202C18.8617 4.24842 18.9266 4.47262 18.9624 4.91104C18.9992 5.36113 19 5.94342 19 6.8H20ZM15.2 2V3C16.0566 3 16.6389 3.00078 17.089 3.03755C17.5274 3.07337 17.7516 3.1383 17.908 3.21799L18.362 2.32698L18.816 1.43597C18.3306 1.18868 17.8139 1.09012 17.2518 1.04419C16.7014 0.999222 16.0236 1 15.2 1V2ZM19.673 3.63803L20.564 3.18404C20.1805 2.43139 19.5686 1.81947 18.816 1.43597L18.362 2.32698L17.908 3.21799C18.2843 3.40973 18.5903 3.71569 18.782 4.09202L19.673 3.63803ZM8.8 22V21C7.94342 21 7.36113 20.9992 6.91104 20.9624C6.47262 20.9266 6.24842 20.8617 6.09202 20.782L5.63803 21.673L5.18404 22.564C5.66937 22.8113 6.18608 22.9099 6.74817 22.9558C7.2986 23.0008 7.97642 23 8.8 23V22ZM4 17.2H3C3 18.0236 2.99922 18.7014 3.04419 19.2518C3.09012 19.8139 3.18868 20.3306 3.43597 20.816L4.32698 20.362L5.21799 19.908C5.1383 19.7516 5.07337 19.5274 5.03755 19.089C5.00078 18.6389 5 18.0566 5 17.2H4ZM5.63803 21.673L6.09202 20.782C5.7157 20.5903 5.40973 20.2843 5.21799 19.908L4.32698 20.362L3.43597 20.816C3.81947 21.5686 4.43139 22.1805 5.18404 22.564L5.63803 21.673ZM4 6.8H5C5 5.94342 5.00078 5.36113 5.03755 4.91104C5.07337 4.47262 5.1383 4.24842 5.21799 4.09202L4.32698 3.63803L3.43597 3.18404C3.18868 3.66937 3.09012 4.18608 3.04419 4.74817C2.99922 5.2986 3 5.97642 3 6.8H4ZM8.8 2V1C7.97642 1 7.2986 0.999222 6.74817 1.04419C6.18608 1.09012 5.66937 1.18868 5.18404 1.43597L5.63803 2.32698L6.09202 3.21799C6.24842 3.1383 6.47262 3.07337 6.91104 3.03755C7.36113 3.00078 7.94342 3 8.8 3V2ZM4.32698 3.63803L5.21799 4.09202C5.40973 3.71569 5.71569 3.40973 6.09202 3.21799L5.63803 2.32698L5.18404 1.43597C4.43139 1.81947 3.81947 2.43139 3.43597 3.18404L4.32698 3.63803ZM17.9973 15.8306L18.748 15.17C17.651 13.9231 15.708 13.5066 14.2229 14.7402L14.8619 15.5094L15.5009 16.2787C16.0198 15.8476 16.744 15.9201 17.2465 16.4911L17.9973 15.8306ZM14.8619 15.5094L14.2229 14.7402C12.8104 15.9136 12.5904 17.9234 13.7246 19.3423L14.5057 18.7179L15.2868 18.0936C14.8472 17.5436 14.9093 16.7701 15.5009 16.2787L14.8619 15.5094ZM21.4888 18.7179L22.27 19.3423C23.3949 17.9349 23.2151 15.9065 21.7612 14.7316L21.1326 15.5094L20.5041 16.2873C21.0887 16.7596 21.1565 17.5321 20.7077 18.0936L21.4888 18.7179ZM21.1326 15.5094L21.7612 14.7316C20.2692 13.5261 18.3509 13.9147 17.2465 15.17L17.9973 15.8306L18.748 16.4911C19.2431 15.9285 19.9576 15.8456 20.5041 16.2873L21.1326 15.5094ZM14.5057 18.7179L13.7246 19.3423C14.1788 19.9106 15.1176 20.7871 15.8774 21.4712C16.2704 21.8252 16.6379 22.1473 16.9068 22.3808C17.0414 22.4976 17.1517 22.5925 17.2285 22.6584C17.2669 22.6914 17.297 22.7171 17.3176 22.7346C17.3279 22.7434 17.3358 22.7502 17.3412 22.7548C17.3439 22.7571 17.346 22.7589 17.3475 22.7601C17.3482 22.7607 17.3487 22.7612 17.3491 22.7615C17.3493 22.7617 17.3495 22.7618 17.3496 22.7619C17.3497 22.762 17.3497 22.762 17.3498 22.7621C17.3498 22.7621 17.3498 22.7621 17.9973 22C18.6447 21.2379 18.6447 21.2379 18.6447 21.2379C18.6447 21.2379 18.6447 21.2379 18.6447 21.2379C18.6446 21.2378 18.6445 21.2377 18.6444 21.2376C18.6441 21.2374 18.6437 21.237 18.6431 21.2365C18.642 21.2356 18.6402 21.234 18.6377 21.232C18.6329 21.2278 18.6255 21.2216 18.6158 21.2133C18.5964 21.1967 18.5676 21.1721 18.5305 21.1403C18.4564 21.0767 18.3491 20.9844 18.2179 20.8704C17.9551 20.6424 17.5972 20.3286 17.2157 19.985C16.4265 19.2743 15.6194 18.5097 15.2868 18.0936L14.5057 18.7179ZM17.9973 22C18.6447 22.7621 18.6447 22.7621 18.6448 22.7621C18.6448 22.762 18.6449 22.762 18.6449 22.7619C18.645 22.7618 18.6452 22.7617 18.6454 22.7615C18.6458 22.7612 18.6463 22.7607 18.6471 22.7601C18.6485 22.7589 18.6506 22.7571 18.6533 22.7548C18.6587 22.7502 18.6667 22.7434 18.677 22.7346C18.6976 22.7171 18.7276 22.6914 18.766 22.6584C18.8428 22.5925 18.9531 22.4976 19.0877 22.3808C19.3567 22.1473 19.7241 21.8252 20.1171 21.4712C20.8769 20.7871 21.8157 19.9106 22.27 19.3423L21.4888 18.7179L20.7077 18.0936C20.3751 18.5097 19.5681 19.2743 18.7788 19.985C18.3973 20.3286 18.0394 20.6424 17.7766 20.8704C17.6454 20.9844 17.5382 21.0767 17.464 21.1403C17.4269 21.1721 17.3981 21.1967 17.3787 21.2133C17.369 21.2216 17.3616 21.2278 17.3568 21.232C17.3544 21.234 17.3526 21.2356 17.3514 21.2365C17.3508 21.237 17.3504 21.2374 17.3501 21.2376C17.35 21.2377 17.3499 21.2378 17.3499 21.2379C17.3498 21.2379 17.3498 21.2379 17.3498 21.2379C17.3498 21.2379 17.3498 21.2379 17.9973 22ZM8 7V8H16V7V6H8V7ZM8 11V12L16 12V11V10L8 10V11ZM8 15V16H10.5053V15V14H8V15Z" fill="#FB5E29"/>
</svg>
