<svg width="24" height="24" viewBox="0 0 24 24" fill="none" xmlns="http://www.w3.org/2000/svg">
<path d="M11.2246 9.31446L7.96533 12.5412L5.00215 11.7719C4.7091 11.6958 4.56256 11.6578 4.42029 11.6552C4.19188 11.6511 3.96705 11.7123 3.77221 11.8316C3.65085 11.9059 3.5438 12.013 3.32971 12.227C2.93428 12.6225 2.73657 12.8202 2.64551 13.0331C2.49882 13.3761 2.51997 13.7677 2.70272 14.0929C2.81617 14.2948 3.03403 14.4701 3.46973 14.8206L6.657 17.385L9.22142 20.5723C9.57197 21.008 9.74726 21.2259 9.94912 21.3393C10.2743 21.5221 10.666 21.5432 11.0089 21.3965C11.2218 21.3055 11.4196 21.1078 11.815 20.7123C12.0291 20.4982 12.1361 20.3912 12.2104 20.2698C12.3297 20.075 12.3909 19.8502 12.3868 19.6217C12.3842 19.4795 12.3462 19.3329 12.2701 19.0399L11.5009 16.0767L14.7601 12.85L17.0542 18.2187C17.4715 19.1951 18.7434 19.4408 19.4942 18.6899L20.1547 18.0295C20.5267 17.6575 20.6766 17.1177 20.5497 16.607L18.6492 8.96091L20.7095 6.90058C21.6858 5.92427 21.6858 4.34136 20.7095 3.36505C19.7332 2.38873 18.1503 2.38873 17.174 3.36505L15.1137 5.42537L7.46754 3.52485C6.95691 3.39793 6.41711 3.54783 6.04505 3.91989L5.38463 4.58031C4.63377 5.33117 4.87941 6.60306 5.85587 7.02032L11.2246 9.31446Z" stroke="#FB5E29" stroke-width="2" stroke-linecap="round" stroke-linejoin="round"/>
</svg>
