<svg width="24" height="24" viewBox="0 0 24 24" fill="none" xmlns="http://www.w3.org/2000/svg">
<path d="M7.99981 16.5376C7.99981 16.5376 8.44425 13.63 11.9998 13.63C15.5553 13.63 15.9998 16.5376 15.9998 16.5376M20.9998 12C20.9998 16.9706 16.9704 21 11.9998 21C11.4157 21 10.8446 20.9444 10.2915 20.8381C9.51327 20.6885 9.12417 20.6138 8.94185 20.6013C8.71809 20.5861 8.67897 20.5866 8.45569 20.6076C8.27375 20.6248 8.05338 20.6731 7.61266 20.7697L6.10841 21.0994C4.76223 21.3945 4.08913 21.542 3.64093 21.3442C3.25006 21.1718 2.95129 20.8408 2.81958 20.4343C2.66855 19.9683 2.88399 19.3138 3.31487 18.0047L3.33772 17.9353C3.53813 17.3265 3.63833 17.022 3.67605 16.771C3.72281 16.4598 3.72459 16.4113 3.7007 16.0975C3.68143 15.8444 3.54354 15.2924 3.26776 14.1885C3.09273 13.4879 2.99981 12.7548 2.99981 12C2.99981 7.02944 7.02924 3 11.9998 3C16.9704 3 20.9998 7.02944 20.9998 12ZM14.2498 8.61133C14.2498 9.85397 13.2424 10.8613 11.9998 10.8613C10.7572 10.8613 9.74981 9.85397 9.74981 8.61133C9.74981 7.36869 10.7572 6.36134 11.9998 6.36134C13.2424 6.36134 14.2498 7.36869 14.2498 8.61133Z" stroke="#FB5E29" stroke-width="2" stroke-linecap="round" stroke-linejoin="round"/>
</svg>
