<svg width="24" height="24" viewBox="0 0 24 24" fill="none" xmlns="http://www.w3.org/2000/svg">
<path d="M5.5 5.3044H5.505M18.5 16.6794H18.505M12 5H15.9142C17.8448 5 18.6548 7.46487 17.1006 8.61011L7.89944 15.3899C6.34518 16.5351 7.15521 19 9.08584 19H12M9 5.78947C9 7.68054 7.67968 9.21423 6.66091 10.1162C6.38445 10.3609 6.24623 10.4833 5.92872 10.578C5.7182 10.6408 5.2818 10.6408 5.07128 10.578C4.75377 10.4833 4.61555 10.3609 4.33909 10.1162C3.32032 9.21423 2 7.68054 2 5.78947C2 3.69661 3.567 2 5.5 2C7.433 2 9 3.69661 9 5.78947ZM5.75 5.3044C5.75 5.44247 5.63807 5.5544 5.5 5.5544C5.36193 5.5544 5.25 5.44247 5.25 5.3044C5.25 5.16633 5.36193 5.0544 5.5 5.0544C5.63807 5.0544 5.75 5.16633 5.75 5.3044ZM22 17.1645C22 19.0555 20.6797 20.5892 19.6609 21.4912C19.3845 21.7359 19.2462 21.8583 18.9287 21.953C18.7182 22.0158 18.2818 22.0158 18.0713 21.953C17.7538 21.8583 17.6155 21.7359 17.3391 21.4912C16.3203 20.5892 15 19.0555 15 17.1645C15 15.0716 16.567 13.375 18.5 13.375C20.433 13.375 22 15.0716 22 17.1645ZM18.75 16.6794C18.75 16.8175 18.6381 16.9294 18.5 16.9294C18.3619 16.9294 18.25 16.8175 18.25 16.6794C18.25 16.5413 18.3619 16.4294 18.5 16.4294C18.6381 16.4294 18.75 16.5413 18.75 16.6794Z" stroke="#FB5E29" stroke-width="2" stroke-linecap="round" stroke-linejoin="round"/>
</svg>
